<svg width="148" height="148" viewBox="0 0 148 148" fill="none" xmlns="http://www.w3.org/2000/svg">
<path d="M74 148C33.1948 148 0 114.805 0 74C0 33.1948 33.1948 0 74 0C114.805 0 148 33.1948 148 74C148 114.805 114.805 148 74 148ZM74 9.25C38.2951 9.25 9.25 38.2951 9.25 74C9.25 109.705 38.2951 138.75 74 138.75C109.705 138.75 138.75 109.705 138.75 74C138.75 38.2951 109.705 9.25 74 9.25Z" fill="#1DA1F2"/>
<path d="M51.1098 101.515C49.9254 101.515 48.7409 101.066 47.8409 100.159C46.0343 98.3524 46.0343 95.4234 47.8409 93.6167L93.628 47.8286C95.4358 46.0219 98.3648 46.0219 100.171 47.8286C101.978 49.6352 101.978 52.5642 100.171 54.372L54.3832 100.159C53.4709 101.066 52.2875 101.515 51.1098 101.515V101.515Z" fill="#1DA1F2"/>
<path d="M96.8901 101.515C95.7068 101.515 94.5223 101.066 93.6224 100.159L47.8353 54.3776C46.0275 52.571 46.0275 49.642 47.8353 47.8353C49.642 46.0275 52.571 46.0275 54.3776 47.8353L100.165 93.6224C101.972 95.429 101.972 98.358 100.165 100.165C99.2591 101.066 98.0746 101.515 96.8901 101.515V101.515Z" fill="#1DA1F2"/>
</svg>
