<svg width="49" height="49" viewBox="0 0 49 49" fill="none" xmlns="http://www.w3.org/2000/svg">
<path d="M24.5 49C10.9902 49 0 38.0098 0 24.5C0 10.9902 10.9902 0 24.5 0C38.0098 0 49 10.9902 49 24.5C49 38.0098 38.0098 49 24.5 49ZM35.2188 22.4585H26.5415V13.7812C26.5415 12.6541 25.6271 11.7397 24.5 11.7397C23.3729 11.7397 22.4585 12.6541 22.4585 13.7812V22.4585H13.7812C12.6541 22.4585 11.7397 23.3729 11.7397 24.5C11.7397 25.6271 12.6541 26.5415 13.7812 26.5415H22.4585V35.2188C22.4585 36.3459 23.3729 37.2603 24.5 37.2603C25.6271 37.2603 26.5415 36.3459 26.5415 35.2188V26.5415H35.2188C36.3459 26.5415 37.2603 25.6271 37.2603 24.5C37.2603 23.3729 36.3459 22.4585 35.2188 22.4585V22.4585Z" fill="#1DA1F2"/>
</svg>
