<svg width="189" height="189" viewBox="0 0 189 189" fill="none" xmlns="http://www.w3.org/2000/svg">
<path d="M112.219 35.4375H41.3438C38.0835 35.4375 35.4375 38.0835 35.4375 41.3438C35.4375 44.604 38.0835 47.25 41.3438 47.25H112.219C115.479 47.25 118.125 44.604 118.125 41.3438C118.125 38.0835 115.479 35.4375 112.219 35.4375Z" fill="#1DA1F2"/>
<path d="M88.5938 59.0625H41.3438C38.0835 59.0625 35.4375 61.7085 35.4375 64.9688C35.4375 68.229 38.0835 70.875 41.3438 70.875H88.5938C91.854 70.875 94.5 68.229 94.5 64.9688C94.5 61.7085 91.854 59.0625 88.5938 59.0625Z" fill="#1DA1F2"/>
<path d="M129.938 0H23.625C10.5958 0 0 10.5958 0 23.625V141.75C0 144.042 1.323 146.132 3.402 147.101C4.19344 147.467 5.05575 147.656 5.90625 147.656C7.26469 147.656 8.61131 147.184 9.68625 146.286L43.4818 118.125H129.938C142.967 118.125 153.562 107.529 153.562 94.5V23.625C153.562 10.5958 142.967 0 129.938 0ZM141.75 94.5C141.75 101.009 136.458 106.312 129.938 106.312H41.3438C39.9617 106.312 38.6269 106.797 37.5638 107.683L11.8125 129.146V23.625C11.8125 17.1163 17.1045 11.8125 23.625 11.8125H129.938C136.458 11.8125 141.75 17.1163 141.75 23.625V94.5Z" fill="#1DA1F2"/>
<path d="M165.375 47.25C162.115 47.25 159.469 49.896 159.469 53.1562C159.469 56.4165 162.115 59.0625 165.375 59.0625C171.895 59.0625 177.188 64.3663 177.188 70.875V170.797L157.248 154.85C156.209 154.023 154.897 153.562 153.562 153.562H70.875C64.3545 153.562 59.0625 148.259 59.0625 141.75V135.844C59.0625 132.584 56.4165 129.938 53.1562 129.938C49.896 129.938 47.25 132.584 47.25 135.844V141.75C47.25 154.779 57.8458 165.375 70.875 165.375H151.484L179.396 187.712C180.471 188.563 181.783 189 183.094 189C183.956 189 184.83 188.811 185.657 188.421C187.701 187.429 189 185.362 189 183.094V70.875C189 57.8458 178.404 47.25 165.375 47.25Z" fill="#1DA1F2"/>
</svg>
