<svg width="92" height="42" viewBox="0 0 92 42" fill="none" xmlns="http://www.w3.org/2000/svg">
<path fill-rule="evenodd" clip-rule="evenodd" d="M35.0624 3.09384C33.8436 5.42914 33.6322 6.38416 34.017 7.81773L34.3848 9.18741L37.8272 9.13229L41.2694 9.07717L41.9483 7.75039C42.3216 7.02069 42.797 6.31843 43.0047 6.18975C43.8371 5.67384 43.2345 5.15286 39.9499 3.55001C35.8506 1.54934 35.8676 1.55095 35.0624 3.09384ZM44.6055 6.4688C42.8306 8.75314 42.1222 10.7956 42.7641 11.778L43.4097 12.766L45.4528 10.4171C47.5341 8.02414 47.8451 7.25016 47.0472 6.44989C46.4612 5.86249 45.068 5.8731 44.6055 6.4688ZM30.6666 8.67542C29.9467 9.11407 28.348 10.32 27.1138 11.3555C21.8512 15.7704 19.2344 15.7058 12.3666 10.992C9.92519 9.31656 8.52219 9.03658 8.30461 10.1819C8.18708 10.8002 12.6769 14.0084 16.1345 15.7773C19.7545 17.629 23.7891 16.897 27.6748 13.6834C28.8061 12.7478 30.5311 11.4549 31.5082 10.8101C33.3406 9.60092 33.6083 9.09977 32.8357 8.3251C32.2474 7.73493 32.1963 7.74324 30.6666 8.67542ZM46.7822 11.3306C44.3401 14.2183 44.3396 14.5144 46.7781 15.0561C47.8839 15.3017 51.4006 10.5988 50.9135 9.52643C50.2242 8.00938 49.2202 8.4478 46.7822 11.3306ZM36.1772 11.2831C30.1098 12.7164 26.9424 17.3462 31.7918 17.6929L33.4634 17.8126L34.3098 21.9375C34.7755 24.2062 35.2629 27.5811 35.3929 29.4374C35.5228 31.2937 35.7954 33.0234 35.9987 33.2813C36.5672 34.0029 38.87 33.8751 39.1644 33.1055C39.4204 32.4367 38.1082 23.8971 37.1809 20.1958C36.2365 16.4277 36.5141 15.6857 39.2684 14.6142C40.9731 13.951 41.1925 13.5681 40.5649 12.3511C39.8351 10.936 38.7571 10.6736 36.1772 11.2831ZM50.9027 13.4062L49.0116 15.5626L50.7265 15.8919C53.0626 16.3407 56.2934 13.0963 54.9008 11.7001C53.9486 10.7451 52.8108 11.2305 50.9027 13.4062ZM7.10424 12.7999C7.10355 12.8756 6.32891 15.1313 5.38269 17.8126C2.64822 25.5625 2.57968 32.2275 5.22859 32.811C7.10401 33.2238 7.51571 32.5845 7.24799 29.6741C6.98395 26.8032 7.47523 26.0246 9.68576 25.8106C12.3239 25.5551 12.1746 23.2193 9.49831 22.875C6.62262 22.5051 7.42118 20.8125 10.4714 20.8125C12.8759 20.8125 12.9097 20.7982 13.5564 19.5C14.7872 17.0294 14.5284 16.4406 11.4296 14.6629C8.90583 13.2148 7.10792 12.4406 7.10424 12.7999ZM56.5837 13.6542C56.4192 13.9452 55.7164 14.808 55.0218 15.5713C53.6643 17.0633 53.6567 17.0383 55.8399 18.2226C56.9774 18.8398 56.7928 18.9615 58.984 16.1474C59.6139 15.3389 59.5725 14.4131 58.8756 13.7143C58.1454 12.9819 56.9809 12.9514 56.5837 13.6542ZM40.069 16.7012C39.0453 17.147 38.8511 17.4046 39.0207 18.0928C39.1347 18.5575 39.5076 20.4562 39.8489 22.3125C40.8892 27.9684 40.5699 27.5456 43.8976 27.6722C48.3506 27.8417 48.441 29.8634 44.005 30.0767L41.6992 30.1874L41.5872 31.7199C41.4393 33.7427 41.8152 33.9764 45.6748 34.26C49.9914 34.5776 49.921 34.6816 49.6062 28.4451C49.3129 22.6365 49.4183 22.875 47.1456 22.875C45.2226 22.875 44.3288 22.2696 44.7247 21.235C44.8999 20.7768 45.4563 20.625 46.9619 20.625C49.1816 20.625 50.0055 19.8623 49.588 18.194C49.1908 16.6071 42.6436 15.5803 40.069 16.7012ZM24.1282 17.3142C21.7081 18.272 21.732 18.2076 22.2999 22.2355C22.5676 24.1342 22.7925 27.327 22.7999 29.3307C22.816 33.7852 22.6357 33.6459 28.4926 33.7278C34.373 33.8101 34.3185 33.9388 32.5071 24.271C31.6837 19.8769 31.6837 19.8764 30.1772 19.8693C28.6891 19.8621 28.4098 19.6557 27.5225 17.9062C26.7145 16.3135 26.6745 16.3066 24.1282 17.3142ZM59.5189 17.9867L58.3275 19.4735L59.4693 20.0655C61.2122 20.9693 64.0571 18.8497 63.216 17.274C62.5117 15.9544 60.8987 16.2653 59.5189 17.9867ZM16.3164 18.5676C15.9816 18.9036 15.7074 19.396 15.7074 19.6619C15.7074 19.9278 15.3047 20.7403 14.8125 21.4677C14.3203 22.1949 13.7991 23.5263 13.6544 24.4262C13.2839 26.7317 12.5495 27.75 11.2567 27.75C9.37342 27.75 8.51276 31.9981 10.1812 33.0599C11.1566 33.6805 20.4661 33.4349 20.7161 32.7817C21.0602 31.8825 20.9887 28.1107 20.5505 24.0639C20.0082 19.0531 19.9518 18.8642 18.9242 18.6057C18.4274 18.4804 17.7744 18.2835 17.4731 18.1675C17.172 18.0517 16.6515 18.2318 16.3164 18.5676ZM52.0584 19.2C51.5485 19.7115 51.5023 22.0079 51.854 29.3611L52.098 34.4655L53.1781 34.7035C54.8674 35.0755 55.3996 34.3652 55.2718 31.9097C55.1719 29.9907 55.2331 29.8025 55.9907 29.6944C56.8868 29.5666 56.9823 29.7965 57.4121 33.1141L57.6454 34.9155L59.2089 34.8015L60.7724 34.6876L60.8759 29.1568L60.9794 23.6261L59.7738 22.8909C58.2905 21.9864 57.6819 22.3697 57.5209 24.3097C57.4223 25.4988 57.2785 25.6875 56.4714 25.6875C55.5698 25.6875 55.5326 25.5904 55.4263 22.953C55.3205 20.3264 55.269 20.1898 54.1174 19.4857C52.7063 18.623 52.6429 18.6142 52.0584 19.2ZM63.4407 20.4687C62.0526 21.6924 62.246 21.8261 65.7211 22.0438L68.626 22.2258L67.879 21.387C66.157 19.4537 64.8892 19.1912 63.4407 20.4687ZM27.9222 22.4135C29.3314 23.3127 29.2204 29.3399 27.7907 29.5511C26.8359 29.692 26.6179 29.1464 26.3127 25.8521C26.03 22.8021 26.605 21.5734 27.9222 22.4135ZM17.8427 24.7532C18.4435 25.9437 18.4662 29.7087 17.8765 30.3C16.4786 31.7015 15.3334 30.2997 15.3334 27.1875C15.3334 23.8007 16.6955 22.4795 17.8427 24.7532ZM63.2967 24.0433C62.5952 24.7661 62.6453 33.88 63.354 34.4699C63.6868 34.7469 65.0205 34.8663 67.0004 34.7969L70.1219 34.6876L70.2264 29.9439C70.3418 24.6942 70.0925 24 68.0906 24C67.517 24 66.3088 23.9015 65.4058 23.7809C64.3066 23.6342 63.6097 23.7209 63.2967 24.0433ZM71.9684 25.163C71.6452 25.6875 72.1388 32.8456 72.5783 34.0047C73.1655 35.5531 75.1707 34.88 75.1707 33.1346C75.1707 31.9084 75.6116 31.803 78.0385 32.4494C81.5313 33.3797 87.1383 32.5539 87.1383 31.109C87.1383 30.1335 85.0643 27.8521 83.4067 27.0043C80.8427 25.6925 72.4725 24.3452 71.9684 25.163ZM67.835 28.5834C68.2352 31.3507 67.298 33.2231 65.9527 32.3433C65.2724 31.8982 65.1447 27.044 65.8028 26.6365C66.7333 26.0597 67.5885 26.8789 67.835 28.5834ZM82.0134 29.0873C85.6488 30.344 83.1029 31.1674 78.5349 30.2123C75.8903 29.6593 74.9768 29.118 75.4349 28.3749C75.7328 27.8916 79.841 28.3364 82.0134 29.0873ZM86.9513 33.7822C75.1589 36.7197 66.2313 37.2738 47.3089 36.2423C41.3439 35.9171 30.7416 35.5506 23.748 35.4277C16.7546 35.305 9.4461 35.0421 7.50743 34.8433C3.56362 34.439 3.38399 34.5116 3.13398 36.6108C2.8382 39.096 2.37889 38.9982 16.1133 39.3725C22.9864 39.5598 35.9306 39.917 44.8781 40.1663C71.6804 40.9131 89.4114 39.2238 89.3771 35.927C89.3564 33.9457 88.6832 33.3507 86.9513 33.7822Z" fill="#D9D9D9"/>
</svg>

