<svg width="168" height="168" viewBox="0 0 168 168" fill="none" xmlns="http://www.w3.org/2000/svg">
<path d="M84.04 47.0856H116.85C119.155 58.9723 129.637 67.9767 142.187 67.9767C156.42 67.9767 168 56.3968 168 42.1637C168 27.9307 156.42 16.3505 142.187 16.3505C129.637 16.3505 119.155 25.3552 116.85 37.2415H84.0384C81.5925 16.3032 63.7478 0 42.1637 0C18.9144 0 0 18.9144 0 42.1637C0 65.4859 18.8419 84.3275 42.1637 84.3275C51.6735 84.3275 60.878 81.1404 68.3104 75.2712L92.759 99.7198C88.033 105.692 84.8895 112.97 83.9616 120.915H51.1498C48.845 109.028 38.3631 100.024 25.8129 100.024C11.5799 100.023 0 111.603 0 125.836C0 140.069 11.5799 151.649 25.8129 151.649C38.3631 151.649 48.8447 142.644 51.1498 130.758H83.96C86.4189 151.89 104.295 168 125.836 168C149.159 168 168 149.158 168 125.836C168 102.587 149.086 83.6725 125.836 83.6725C115.981 83.6725 106.906 87.0719 99.7192 92.7586L75.2683 68.3077C80.0149 62.2929 83.121 54.9842 84.04 47.0856V47.0856ZM142.187 26.1942C150.993 26.1942 158.156 33.3582 158.156 42.1634C158.156 50.9686 150.992 58.1326 142.187 58.1326C133.382 58.1326 126.218 50.9686 126.218 42.1634C126.218 33.3582 133.382 26.1942 142.187 26.1942V26.1942ZM9.84375 42.1637C9.84375 24.3423 24.3423 9.84375 42.1637 9.84375C59.9852 9.84375 74.4837 24.3423 74.4837 42.1637C74.4837 50.1375 71.5824 57.5462 66.6714 63.2579C64.9304 56.7856 60.6903 51.3302 55.0522 47.9916C57.2115 45.2215 58.5027 41.7434 58.5027 37.9673C58.5027 28.958 51.1731 21.6287 42.1641 21.6287C33.1551 21.6287 25.8254 28.9583 25.8254 37.9673C25.8254 41.7434 27.1166 45.2215 29.276 47.9916C23.6378 51.3302 19.3978 56.7856 17.6567 63.2579C12.745 57.5462 9.84375 50.1375 9.84375 42.1637V42.1637ZM35.6685 37.967C35.6685 34.3855 38.5823 31.4721 42.1634 31.4721C45.7446 31.4721 48.6583 34.3859 48.6583 37.967C48.6583 41.5482 45.7446 44.4619 42.1634 44.4619C38.5823 44.4619 35.6685 41.5485 35.6685 37.967V37.967ZM26.628 70.5262C26.628 60.5614 34.0932 54.306 42.1634 54.306C50.1572 54.306 57.6988 60.4734 57.6988 70.5262C47.8534 75.9058 36.0924 75.6975 26.628 70.5262V70.5262ZM25.8129 141.806C17.0077 141.806 9.84375 134.642 9.84375 125.836C9.84375 117.031 17.0077 109.867 25.8129 109.867C34.6182 109.867 41.7821 117.031 41.7821 125.836C41.7821 134.642 34.6185 141.806 25.8129 141.806V141.806ZM110.301 154.199C110.301 144.236 117.764 137.98 125.833 137.979H125.837C125.837 137.979 125.839 137.979 125.84 137.979C133.829 137.98 141.372 144.144 141.372 154.199C131.778 159.441 120.018 159.508 110.301 154.199V154.199ZM119.341 121.64C119.341 118.058 122.255 115.145 125.836 115.145C129.417 115.145 132.331 118.059 132.331 121.64C132.331 125.221 129.418 128.134 125.838 128.135C125.838 128.135 125.837 128.135 125.836 128.135C125.836 128.135 125.835 128.135 125.834 128.135C122.254 128.134 119.341 125.221 119.341 121.64ZM158.156 125.836C158.156 133.81 155.255 141.219 150.344 146.93C148.603 140.458 144.363 135.003 138.725 131.664C140.884 128.894 142.176 125.416 142.176 121.64C142.176 112.631 134.846 105.301 125.837 105.301C116.828 105.301 109.498 112.631 109.498 121.64C109.498 125.416 110.789 128.894 112.949 131.664C107.311 135.003 103.071 140.458 101.33 146.93C96.4189 141.219 93.5176 133.81 93.5176 125.836C93.5176 108.015 108.016 93.5163 125.838 93.5163C143.659 93.5163 158.156 108.015 158.156 125.836V125.836Z" fill="#1DA1F2"/>
</svg>
