<svg width="40" height="40" viewBox="0 0 590 479" fill="#D9D9D9" stroke="#000" xmlns="http://www.w3.org/2000/svg" >
    <path d="M340.257 386.024C304.746 370.985 272.076 350.434 243.153 324.944C221.503 305.862 197.047 290.477 170.461 279.218L54.5013 230.108C43.6356 225.506 35.5215 217.105 31.0317 207.105C29.828 209.155 28.7307 211.295 27.7792 213.541L5.8496 265.322C2.61903 272.95 6.1842 281.754 13.8123 284.984L126.044 332.515C143.223 339.791 162.209 339.941 179.504 332.937C179.526 332.928 179.548 332.92 179.569 332.91C186.774 330.018 194.984 331.677 200.496 337.142L223.844 360.296C239.795 376.101 258.358 388.552 279.019 397.302L368.882 435.359C406.415 451.255 447.88 444.916 478.536 422.329C451.967 425.593 424.889 421.865 399.577 411.146L340.258 386.023L340.257 386.024Z" />
    <path d="M262.99 302.437C275.182 313.182 288.11 322.956 301.674 331.735L285.608 311.685C265.66 287.18 243.351 259.776 222.748 234.475C211.145 220.222 192.643 212.979 174.458 215.569C161.341 217.432 149.493 224.25 141.217 234.252L182.16 251.592C211.723 264.112 238.917 281.219 262.99 302.437V302.437Z"/>
    <path d="M481.356 293.381C456.132 282.699 434.696 265.236 419.129 242.781L381.681 274.743C375.38 280.121 365.912 279.373 360.534 273.072C355.155 266.77 355.904 257.302 362.205 251.924L402.455 217.569C397.536 210.099 392.414 202.318 387.226 194.437L349.829 226.356C343.528 231.735 334.06 230.986 328.682 224.685C323.303 218.383 324.052 208.916 330.353 203.537L370.602 169.184C365.392 161.269 360.27 153.488 355.374 146.05L317.977 177.97C311.676 183.348 302.208 182.6 296.829 176.298C291.451 169.997 292.199 160.529 298.501 155.151L338.75 120.796C325.377 100.48 316.242 86.6019 316.242 86.6019C312.312 80.6303 304.71 78.2624 298.083 80.9464L259.616 96.5247C242.042 103.643 221.956 95.1338 214.838 77.5608C212.853 71.69 201.503 49.5116 173.908 45.8915C155.598 43.492 137.326 51.1649 126.224 65.912L85.1325 120.463C84.394 121.443 83.7794 122.51 83.3009 123.64L58.2382 182.818C55.0076 190.446 58.5728 199.25 66.2009 202.48L112.854 222.238C125.783 202.72 146.704 189.207 170.234 185.865C198.769 181.8 227.81 193.168 246.013 215.531C266.614 240.83 288.925 268.237 308.875 292.742L339.704 330.612C358.08 353.175 381.95 371.097 408.731 382.441L411.277 383.519C441.952 396.51 475.848 396.778 506.724 384.274C510.411 382.781 513.361 379.868 514.912 376.205C528.498 344.128 513.452 306.974 481.356 293.381V293.381Z" />
</svg>
 