<svg width="191" height="212" viewBox="0 0 191 212" fill="none" xmlns="http://www.w3.org/2000/svg">
<path d="M189.477 28.4991L180.407 20.522L189.477 12.5464C190.887 11.3042 191.369 9.36816 190.707 7.61163C190.042 5.85349 188.398 4.71805 186.518 4.71805H148.987V3.10709C148.987 1.39099 147.594 0 145.876 0C144.158 0 142.766 1.39099 142.766 3.10709V45.0115L117.219 58.868C117.078 57.7455 116.741 56.6425 116.208 55.6041L112.608 48.5844C110.137 43.7645 104.201 41.8543 99.3791 44.3209L96.5956 45.7442C94.2573 46.9411 92.5264 48.9726 91.72 51.4699C90.9136 53.9656 91.1289 56.6263 92.3272 58.9602L95.9268 65.9815C96.7672 67.62 98.0092 68.9171 99.4698 69.8261C97.559 72.3962 96.6522 75.5567 95.7195 78.8401L95.0492 81.2112C94.5812 82.8626 95.543 84.5804 97.1963 85.0462C97.4781 85.127 97.7631 85.1642 98.0432 85.1642C99.4001 85.1642 100.647 84.2714 101.036 82.9015L101.706 80.5352C103.069 75.733 103.907 73.1613 106.572 71.7153L111.35 69.1226L111.94 68.8217C112.136 68.7214 112.319 68.6082 112.505 68.4966L146.561 50.0239C146.346 54.2762 144.055 58.2939 140.282 60.5825L118.135 74.0234C118.109 74.0379 118.083 74.0525 118.059 74.0687L111.166 78.2513C109.699 79.1425 109.231 81.0544 110.123 82.5214C110.963 83.9043 112.712 84.396 114.139 83.7021L108.908 99.4947L105.085 101.06L94.6897 105.316L97.6853 94.7378C98.1517 93.0864 97.1915 91.3687 95.5382 90.9013C93.8833 90.4322 92.1653 91.3946 91.6973 93.046L86.9642 109.765C86.9026 109.98 86.8622 110.217 86.8525 110.441L85.6137 133.17C85.5765 134.037 85.7611 135.675 85.3595 136.521L71.6022 165.431H61.6049C55.748 165.431 50.9841 170.189 50.9841 176.038V185.007C49.6434 184.394 48.1553 184.051 46.5862 184.051H21.1978C15.3425 184.051 10.5787 188.808 10.5787 194.658V205.786H3.11061C1.39257 205.786 0 207.177 0 208.893C0 210.609 1.39257 212 3.11061 212H186.515C188.233 212 189.626 210.609 189.626 208.893C189.626 207.177 188.233 205.786 186.515 205.786H178.425V125.699C178.425 119.85 173.661 115.092 167.806 115.092H148.987V60.8866C152.436 56.2171 153.713 50.0967 152.112 44.2804C151.861 43.3666 151.205 42.6161 150.331 42.2457C149.902 42.0629 149.442 41.9821 148.987 41.9998V36.3275H186.517C188.398 36.3275 190.042 35.1921 190.706 33.4355C191.369 31.679 190.887 29.7413 189.477 28.4991V28.4991ZM97.6416 53.3785C97.9379 52.4614 98.5727 51.7141 99.4309 51.2758L102.214 49.8525C102.739 49.584 103.299 49.4562 103.853 49.4562C105.165 49.4562 106.433 50.1727 107.071 51.4165L110.672 58.4378C111.512 60.0779 110.968 62.0657 109.474 63.0701L108.46 63.6184L106.321 64.7134C104.551 65.6192 102.371 64.9172 101.465 63.1478L97.8634 56.1281C97.4246 55.2709 97.3453 54.2939 97.6416 53.3785V53.3785ZM91.3912 166.387C90.3339 165.905 89.1842 165.589 87.9762 165.478L91.3912 160.947V166.387ZM106.161 141.351C107.657 139.56 108.07 137.469 108.403 135.783C108.487 135.382 110.022 127.007 110.022 127.007C110.022 127.007 111.475 127.911 111.627 127.976C111.732 128.023 111.807 128.126 111.818 128.248L113.51 145.43H103.086L106.161 141.351ZM124.555 124.201L121.929 145.415H119.761L118.01 127.64C117.787 125.362 116.391 123.374 114.346 122.386L111.218 120.405L113.302 108.868C113.302 108.868 122.081 119.286 122.285 119.551C124.102 121.911 124.724 122.855 124.555 124.201ZM90.9557 139.238C91.5839 137.349 91.8754 135.426 91.8268 133.47L92.9571 112.741L107.344 106.852L104.729 121.322C104.721 121.361 104.713 121.401 104.708 121.44L102.545 133.404C102.263 134.643 102.017 136.523 101.243 137.543L80.2232 165.431H78.4906L90.9557 139.238ZM16.7999 194.656C16.7999 192.235 18.7721 190.265 21.1978 190.265H46.5862C49.0119 190.265 50.9858 192.235 50.9858 194.656V205.786H16.7999V194.656ZM57.2054 194.656V176.038C57.2054 173.615 59.1792 171.645 61.6049 171.645H86.9933C89.419 171.645 91.3912 173.615 91.3912 176.038V205.786H57.207V194.656H57.2054ZM172.204 125.699V205.786H138.02V187.156C138.02 185.44 136.627 184.049 134.909 184.049C133.189 184.049 131.797 185.44 131.797 187.156V205.786H97.6125V156.035C97.6125 153.614 99.5847 151.644 102.01 151.644H127.399C129.824 151.644 131.797 153.614 131.797 156.035V171.611C131.797 173.327 133.189 174.718 134.907 174.718C136.627 174.718 138.018 173.327 138.018 171.611V125.699C138.018 123.276 139.992 121.306 142.417 121.306H145.844C145.854 121.306 145.865 121.307 145.876 121.307C145.886 121.307 145.897 121.306 145.907 121.306H167.804C170.23 121.306 172.204 123.277 172.204 125.699V125.699ZM142.417 115.092C136.562 115.092 131.798 119.85 131.798 125.699V146.386C130.684 145.878 129.47 145.556 128.192 145.462L130.73 124.966C131.228 120.971 129.188 118.323 127.216 115.761C127.007 115.489 114.916 101.149 114.916 101.149L122.334 78.7479L142.766 66.3487V115.092H142.417ZM148.987 30.1117V10.9338H181.895L174.808 17.1674C173.843 18.0166 173.289 19.2393 173.289 20.5236C173.289 21.8078 173.843 23.0306 174.808 23.8798L181.895 30.1133H148.987V30.1117Z" fill="#1DA1F2"/>
</svg>
