<svg width="123" height="123" viewBox="0 0 123 123" fill="none" xmlns="http://www.w3.org/2000/svg">
<path d="M115.647 80.5309C109.112 73.9962 99.4806 71.6503 90.7228 74.346L81.942 65.5649L120.31 27.1976C122.045 25.4624 123 23.1551 123 20.7011C123 18.2471 122.045 15.9396 120.31 14.2047L108.796 2.69088C107.061 0.955418 104.753 0 102.299 0C99.8451 0 97.5381 0.955418 95.8029 2.69088L57.4353 41.0585L48.6544 32.2774C51.3501 23.5198 49.0042 13.888 42.4696 7.35314C38.8533 3.73687 34.2895 1.35181 29.2717 0.455968C24.3709 -0.419211 19.381 0.175612 14.842 2.17558C14.1164 2.49533 13.5954 3.15237 13.4493 3.9317C13.3035 4.71078 13.5512 5.51197 14.1119 6.07268L25.5733 17.5339L17.4704 25.6365L6.00896 14.1756C5.44825 13.6149 4.64658 13.3679 3.86798 13.513C3.08866 13.6588 2.43161 14.1799 2.1121 14.9057C0.112134 19.4449 -0.48245 24.4346 0.392249 29.3354C1.28809 34.3532 3.67315 38.917 7.28966 42.5335C13.8243 49.0679 23.4566 51.4141 32.2139 48.7184L40.9947 57.4992C40.9947 57.4992 18.9555 79.5385 11.6091 86.8851C11.1714 87.3228 11.0275 87.8281 11.026 87.8329L0.563537 119.401C0.277656 120.263 0.502757 121.213 1.14515 121.855C1.60304 122.313 2.21684 122.559 2.8441 122.559C3.09682 122.559 3.35171 122.519 3.5994 122.437L35.1371 111.985C35.6329 111.843 36.1153 111.391 36.1153 111.391L65.501 82.0057L74.2821 90.7868C71.5864 99.5444 73.9323 109.176 80.4669 115.711C84.0832 119.328 88.647 121.712 93.6648 122.608C95.1336 122.871 96.6098 123.001 98.0798 123.001C101.515 123.001 104.915 122.289 108.094 120.889C108.82 120.569 109.341 119.912 109.487 119.133C109.633 118.354 109.385 117.552 108.824 116.992L97.363 105.531L105.466 97.4276L116.927 108.889C117.488 109.45 118.289 109.698 119.068 109.551C119.847 109.406 120.504 108.884 120.824 108.159C122.824 103.619 123.419 98.6298 122.544 93.729C121.648 88.7109 119.263 84.1474 115.647 80.5309V80.5309ZM99.2003 6.0883C100.028 5.26044 101.129 4.80448 102.299 4.80448C103.47 4.80448 104.571 5.2602 105.398 6.0883L116.912 17.6021C117.74 18.4297 118.196 19.5302 118.196 20.7011C118.196 21.8718 117.74 22.9726 116.912 23.8002L109.117 31.5951L91.4054 13.8832L99.2003 6.0883ZM34.5519 44.2618C34.093 43.8029 33.4787 43.5581 32.8527 43.5581C32.5673 43.5581 32.279 43.609 32.0025 43.7138C24.6277 46.5063 16.2608 44.7098 10.6866 39.1356C5.65798 34.107 3.72264 27.0133 5.33894 20.3004L15.7712 30.7329C16.7093 31.6708 18.2305 31.6708 19.1686 30.7329L30.6689 19.2326C31.607 18.2944 31.607 16.7733 30.6689 15.8351L20.2367 5.4029C26.9491 3.78612 34.043 5.72194 39.0719 10.7506C44.6461 16.3247 46.4431 24.6917 43.6501 32.0662C43.3154 32.95 43.5297 33.9477 44.1978 34.6158L54.0376 44.4556L44.3917 54.1016L34.5519 44.2618ZM6.62901 116.371L10.104 105.886L17.1143 112.896L6.62901 116.371ZM22.2182 111.205L11.7955 100.782L14.3627 93.0361L29.9641 108.638L22.2182 111.205ZM34.4168 106.295L27.2597 99.1381L50.775 75.6229C51.7131 74.6848 51.7131 73.1636 50.775 72.2255C49.8371 71.2876 48.3157 71.2876 47.3776 72.2255L23.8623 95.7407L16.705 88.5836L88.0079 17.2806L88.2018 17.4745L95.1648 24.4377L62.7354 56.8674C61.7972 57.8055 61.7972 59.3267 62.7354 60.2648C63.2043 60.7338 63.8193 60.9685 64.4341 60.9685C65.0488 60.9685 65.6638 60.7338 66.1328 60.2648L98.5622 27.8352L105.719 34.9925L34.4168 106.295ZM117.597 102.764L107.165 92.3313C106.715 91.8808 106.103 91.6276 105.466 91.6276C104.829 91.6276 104.218 91.8808 103.768 92.3313L92.2676 103.832C91.3294 104.77 91.3294 106.291 92.2676 107.229L102.7 117.661C95.9864 119.278 88.8932 117.342 83.8646 112.314C78.2904 106.74 76.4934 98.3727 79.2864 90.998C79.6211 90.1141 79.4068 89.1164 78.7384 88.4483L68.8986 78.6085L78.5446 68.9626L88.3846 78.8026C89.0527 79.4707 90.0502 79.6855 90.9343 79.3504C98.3083 76.5574 106.676 78.3544 112.25 83.9285C117.279 88.9572 119.214 96.0508 117.597 102.764V102.764Z" fill="#1DA1F2"/>
<path d="M56.7862 68.6164C55.7818 68.6164 54.865 67.9653 54.5268 67.0222C54.1933 66.092 54.4787 65.0232 55.2321 64.3827C56.0191 63.7136 57.1761 63.6348 58.0537 64.1739C58.8959 64.6914 59.3315 65.7167 59.1403 66.6825C58.9209 67.7912 57.917 68.6164 56.7862 68.6164V68.6164Z" fill="#1DA1F2"/>
</svg>
