<svg width="65" height="78" viewBox="0 0 65 78" fill="none" xmlns="http://www.w3.org/2000/svg">
<path d="M43.4507 28.2589C42.4417 28.2589 41.624 29.0767 41.624 30.0856V64.6108C41.624 65.6191 42.4417 66.4375 43.4507 66.4375C44.4597 66.4375 45.2774 65.6191 45.2774 64.6108V30.0856C45.2774 29.0767 44.4597 28.2589 43.4507 28.2589Z" fill="#E0245E"/>
<path d="M21.8953 28.2589C20.8863 28.2589 20.0686 29.0767 20.0686 30.0856V64.6108C20.0686 65.6191 20.8863 66.4375 21.8953 66.4375C22.9043 66.4375 23.7221 65.6191 23.7221 64.6108V30.0856C23.7221 29.0767 22.9043 28.2589 21.8953 28.2589Z" fill="#E0245E"/>
<path d="M6.18552 23.2204V68.227C6.18552 70.8872 7.16096 73.3854 8.86495 75.1779C10.5611 76.9753 12.9216 77.9957 15.3919 78H49.9541C52.4252 77.9957 54.7856 76.9753 56.4811 75.1779C58.1851 73.3854 59.1605 70.8872 59.1605 68.227V23.2204C62.5478 22.3213 64.7427 19.0489 64.2896 15.5732C63.8358 12.0981 60.8752 9.4986 57.3702 9.49789H48.0175V7.21448C48.0282 5.29428 47.269 3.45044 45.9096 2.09395C44.5503 0.73818 42.7036 -0.0167706 40.7834 -0.00107224H24.5626C22.6424 -0.0167706 20.7957 0.73818 19.4364 2.09395C18.0771 3.45044 17.3178 5.29428 17.3285 7.21448V9.49789H7.97585C4.47083 9.4986 1.51025 12.0981 1.05643 15.5732C0.603312 19.0489 2.79823 22.3213 6.18552 23.2204V23.2204ZM49.9541 74.3466H15.3919C12.2687 74.3466 9.83897 71.6636 9.83897 68.227V23.381H55.507V68.227C55.507 71.6636 53.0774 74.3466 49.9541 74.3466ZM20.982 7.21448C20.9698 6.2633 21.3438 5.3478 22.0188 4.67634C22.6931 4.00487 23.6107 3.63596 24.5626 3.65237H40.7834C41.7353 3.63596 42.6529 4.00487 43.3272 4.67634C44.0023 5.34709 44.3762 6.2633 44.364 7.21448V9.49789H20.982V7.21448ZM7.97585 13.1513H57.3702C59.1862 13.1513 60.6583 14.6234 60.6583 16.4394C60.6583 18.2555 59.1862 19.7275 57.3702 19.7275H7.97585C6.15983 19.7275 4.68775 18.2555 4.68775 16.4394C4.68775 14.6234 6.15983 13.1513 7.97585 13.1513V13.1513Z" fill="#E0245E"/>
<path d="M32.673 28.2589C31.664 28.2589 30.8463 29.0767 30.8463 30.0856V64.6108C30.8463 65.6191 31.664 66.4375 32.673 66.4375C33.682 66.4375 34.4997 65.6191 34.4997 64.6108V30.0856C34.4997 29.0767 33.682 28.2589 32.673 28.2589Z" fill="#E0245E"/>
</svg>
