<svg width="150" height="150" viewBox="0 0 150 150" fill="none" xmlns="http://www.w3.org/2000/svg">
<g clip-path="url(#clip0)">
<path d="M39.2298 110.773L39.2286 110.771C37.5926 109.135 37.5926 106.483 39.2286 104.847L56.2223 87.8535L56.5759 87.5L56.2223 87.1464L39.2223 70.1464C37.5863 68.5104 37.5863 65.8583 39.2223 64.2223C40.8583 62.5863 43.5105 62.5863 45.1464 64.2223L65.4589 84.5348C67.0949 86.1708 67.0949 88.8229 65.4589 90.4589L45.1464 110.771L45.1452 110.773C44.3311 111.592 43.2608 112 42.1875 112C41.1142 112 40.0439 111.592 39.2298 110.773Z" fill="#D9D9D9" stroke="black"/>
<path d="M107.812 112H79.6875C77.3761 112 75.5 110.124 75.5 107.812C75.5 105.501 77.3761 103.625 79.6875 103.625H107.812C110.124 103.625 112 105.501 112 107.812C112 110.124 110.124 112 107.812 112Z" fill="#D9D9D9" stroke="black"/>
<path d="M132.812 143.25H17.1875C7.98239 143.25 0.5 135.768 0.5 126.562V23.4375C0.5 14.2324 7.98239 6.75 17.1875 6.75H132.812C142.018 6.75 149.5 14.2324 149.5 23.4375V126.562C149.5 135.768 142.018 143.25 132.812 143.25ZM17.1875 15.125C12.6051 15.125 8.875 18.8551 8.875 23.4375V126.562C8.875 131.145 12.6051 134.875 17.1875 134.875H132.812C137.395 134.875 141.125 131.145 141.125 126.562V23.4375C141.125 18.8551 137.395 15.125 132.812 15.125H17.1875Z" fill="#D9D9D9" stroke="black"/>
<path d="M9.18367 37.172H140.816V27.9883H9.18367V37.172Z" fill="#D9D9D9" stroke="black"/>
</g>
<defs>
<clipPath id="clip0">
<rect width="150" height="150" fill="white"/>
</clipPath>
</defs>
</svg>
